<svg width="261" height="140" viewBox="0 0 261 140" fill="none" xmlns="http://www.w3.org/2000/svg">
<g filter="url(#filter0_dd_401_1831)">
<rect x="40.5" y="20" width="180" height="60" rx="7" fill="white"/>
<path d="M162.789 48.8013V52.2378H160.635V54.4915H162.789V62.1489C162.789 64.7637 163.972 65.8096 166.947 65.8096C167.47 65.8096 167.968 65.7473 168.404 65.6726V63.4439C168.031 63.4812 167.794 63.5061 167.383 63.5061C166.051 63.5061 165.466 62.8836 165.466 61.4641V54.4915H168.404V52.2378H165.466V48.8013H162.789Z" fill="#212121"/>
<path d="M175.985 65.9964C179.945 65.9964 182.372 63.3443 182.372 58.949C182.372 54.5786 179.932 51.9141 175.985 51.9141C172.026 51.9141 169.585 54.5786 169.585 58.949C169.585 63.3443 172.013 65.9964 175.985 65.9964ZM175.985 63.6182C173.657 63.6182 172.349 61.9124 172.349 58.949C172.349 56.0105 173.657 54.2923 175.985 54.2923C178.301 54.2923 179.621 56.0105 179.621 58.949C179.621 61.8999 178.301 63.6182 175.985 63.6182Z" fill="#212121"/>
<path d="M184.45 65.7349H187.127V57.7288C187.127 55.8238 188.559 54.5413 190.588 54.5413C191.061 54.5413 191.858 54.6284 192.082 54.7031V52.0635C191.796 51.9888 191.286 51.9514 190.887 51.9514C189.119 51.9514 187.612 52.9226 187.226 54.2549H187.027V52.1756H184.45V65.7349Z" fill="#212121"/>
<path d="M198.729 54.1926C200.709 54.1926 202.004 55.5747 202.066 57.7039H195.218C195.368 55.5872 196.75 54.1926 198.729 54.1926ZM202.054 62.0742C201.556 63.1326 200.448 63.7178 198.829 63.7178C196.687 63.7178 195.305 62.2112 195.218 59.833V59.6836H204.793V58.7498C204.793 54.4915 202.514 51.9141 198.742 51.9141C194.919 51.9141 192.491 54.6658 192.491 58.9988C192.491 63.3318 194.869 65.9964 198.754 65.9964C201.855 65.9964 204.021 64.5022 204.631 62.0742H202.054Z" fill="#212121"/>
<path d="M145.233 60.7276C145.44 64.0572 148.215 66.1866 152.344 66.1866C156.758 66.1866 159.52 63.954 159.52 60.3921C159.52 57.5917 157.945 56.043 154.125 55.1526L152.073 54.6493C149.647 54.0814 148.666 53.32 148.666 51.9908C148.666 50.3131 150.189 49.2161 152.473 49.2161C154.641 49.2161 156.138 50.2873 156.409 52.0037H159.223C159.055 48.8677 156.293 46.6609 152.512 46.6609C148.447 46.6609 145.737 48.8677 145.737 52.1843C145.737 54.9203 147.272 56.5463 150.641 57.3335L153.041 57.9143C155.506 58.495 156.59 59.3468 156.59 60.7664C156.59 62.4182 154.887 63.6184 152.564 63.6184C150.073 63.6184 148.344 62.4957 148.098 60.7276H145.233Z" fill="#212121"/>
<path d="M117.502 51.9514C115.66 51.9514 114.066 52.8728 113.244 54.4168H113.045V52.1756H110.467V70.2422H113.144V63.6804H113.356C114.066 65.1123 115.597 65.959 117.527 65.959C120.951 65.959 123.13 63.2571 123.13 58.949C123.13 54.6409 120.951 51.9514 117.502 51.9514ZM116.743 63.5559C114.502 63.5559 113.095 61.7879 113.095 58.9614C113.095 56.1226 114.502 54.3545 116.755 54.3545C119.021 54.3545 120.379 56.0852 120.379 58.949C120.379 61.8252 119.021 63.5559 116.743 63.5559Z" fill="#212121"/>
<path d="M132.498 51.9514C130.655 51.9514 129.061 52.8728 128.239 54.4168H128.04V52.1756H125.463V70.2422H128.14V63.6804H128.351C129.061 65.1123 130.593 65.959 132.522 65.959C135.947 65.959 138.126 63.2571 138.126 58.949C138.126 54.6409 135.947 51.9514 132.498 51.9514ZM131.738 63.5559C129.497 63.5559 128.09 61.7879 128.09 58.9614C128.09 56.1226 129.497 54.3545 131.751 54.3545C134.017 54.3545 135.374 56.0852 135.374 58.949C135.374 61.8252 134.017 63.5559 131.738 63.5559Z" fill="#212121"/>
<path d="M105.664 65.7349H108.736L102.012 47.1126H98.9021L92.1785 65.7349H95.1467L96.8631 60.7922H103.961L105.664 65.7349ZM100.309 50.4938H100.528L103.225 58.366H97.5987L100.309 50.4938Z" fill="#212121"/>
<path d="M93.9767 33.0665V42.05H97.2202C99.8972 42.05 101.447 40.4003 101.447 37.5303C101.447 34.7039 99.8848 33.0665 97.2202 33.0665H93.9767ZM95.3712 34.3365H97.0646C98.926 34.3365 100.028 35.5194 100.028 37.549C100.028 39.6096 98.9447 40.78 97.0646 40.78H95.3712V34.3365Z" fill="#616161"/>
<path d="M106.195 42.1808C108.175 42.1808 109.389 40.8547 109.389 38.6571C109.389 36.4719 108.169 35.1396 106.195 35.1396C104.215 35.1396 102.995 36.4719 102.995 38.6571C102.995 40.8547 104.209 42.1808 106.195 42.1808ZM106.195 40.9917C105.031 40.9917 104.377 40.1388 104.377 38.6571C104.377 37.1879 105.031 36.3287 106.195 36.3287C107.353 36.3287 108.013 37.1879 108.013 38.6571C108.013 40.1326 107.353 40.9917 106.195 40.9917Z" fill="#616161"/>
<path d="M119.727 35.2704H118.388L117.181 40.4438H117.075L115.68 35.2704H114.398L113.003 40.4438H112.904L111.69 35.2704H110.333L112.2 42.05H113.576L114.971 37.0571H115.076L116.477 42.05H117.866L119.727 35.2704Z" fill="#616161"/>
<path d="M121.268 42.05H122.607V38.0844C122.607 37.026 123.236 36.3661 124.226 36.3661C125.215 36.3661 125.689 36.9077 125.689 37.9972V42.05H127.027V37.661C127.027 36.0486 126.193 35.1396 124.68 35.1396C123.659 35.1396 122.987 35.5941 122.657 36.3474H122.557V35.2704H121.268V42.05Z" fill="#616161"/>
<path d="M129.135 42.05H130.474V32.6245H129.135V42.05Z" fill="#616161"/>
<path d="M135.508 42.1808C137.487 42.1808 138.701 40.8547 138.701 38.6571C138.701 36.4719 137.481 35.1396 135.508 35.1396C133.528 35.1396 132.308 36.4719 132.308 38.6571C132.308 40.8547 133.522 42.1808 135.508 42.1808ZM135.508 40.9917C134.343 40.9917 133.69 40.1388 133.69 38.6571C133.69 37.1879 134.343 36.3287 135.508 36.3287C136.666 36.3287 137.325 37.1879 137.325 38.6571C137.325 40.1326 136.666 40.9917 135.508 40.9917Z" fill="#616161"/>
<path d="M142.689 41.0353C141.961 41.0353 141.432 40.6804 141.432 40.0703C141.432 39.4727 141.855 39.1552 142.789 39.0929L144.445 38.9871V39.5536C144.445 40.394 143.698 41.0353 142.689 41.0353ZM142.347 42.1621C143.237 42.1621 143.978 41.7761 144.383 41.0975H144.489V42.05H145.777V37.4182C145.777 35.9863 144.819 35.1396 143.119 35.1396C141.581 35.1396 140.486 35.8867 140.349 37.0509H141.644C141.793 36.5715 142.31 36.2976 143.057 36.2976C143.972 36.2976 144.445 36.7023 144.445 37.4182V38.0034L142.608 38.1093C140.996 38.2089 140.087 38.9124 140.087 40.1326C140.087 41.3715 141.04 42.1621 142.347 42.1621Z" fill="#616161"/>
<path d="M150.319 42.1621C151.253 42.1621 152.044 41.7201 152.449 40.9792H152.554V42.05H153.837V32.6245H152.498V36.3474H152.399C152.032 35.6003 151.247 35.1583 150.319 35.1583C148.607 35.1583 147.506 36.5155 147.506 38.6571C147.506 40.8049 148.595 42.1621 150.319 42.1621ZM150.699 36.3599C151.82 36.3599 152.523 37.2501 152.523 38.6633C152.523 40.0828 151.826 40.9606 150.699 40.9606C149.566 40.9606 148.888 40.0952 148.888 38.6571C148.888 37.2314 149.572 36.3599 150.699 36.3599Z" fill="#616161"/>
<path d="M162.517 42.1808C164.496 42.1808 165.71 40.8547 165.71 38.6571C165.71 36.4719 164.49 35.1396 162.517 35.1396C160.537 35.1396 159.317 36.4719 159.317 38.6571C159.317 40.8547 160.531 42.1808 162.517 42.1808ZM162.517 40.9917C161.352 40.9917 160.699 40.1388 160.699 38.6571C160.699 37.1879 161.352 36.3287 162.517 36.3287C163.675 36.3287 164.335 37.1879 164.335 38.6571C164.335 40.1326 163.675 40.9917 162.517 40.9917Z" fill="#616161"/>
<path d="M167.482 42.05H168.821V38.0844C168.821 37.026 169.449 36.3661 170.439 36.3661C171.429 36.3661 171.902 36.9077 171.902 37.9972V42.05H173.241V37.661C173.241 36.0486 172.407 35.1396 170.894 35.1396C169.873 35.1396 169.2 35.5941 168.87 36.3474H168.771V35.2704H167.482V42.05Z" fill="#616161"/>
<path d="M179.405 33.5833V35.3015H178.328V36.4283H179.405V40.2571C179.405 41.5645 179.997 42.0874 181.485 42.0874C181.746 42.0874 181.995 42.0563 182.213 42.0189V40.9045C182.026 40.9232 181.908 40.9357 181.703 40.9357C181.037 40.9357 180.744 40.6244 180.744 39.9147V36.4283H182.213V35.3015H180.744V33.5833H179.405Z" fill="#616161"/>
<path d="M184.01 42.05H185.348V38.0906C185.348 37.0634 185.958 36.3723 187.054 36.3723C188 36.3723 188.505 36.9202 188.505 38.0034V42.05H189.843V37.6735C189.843 36.061 188.953 35.1459 187.509 35.1459C186.488 35.1459 185.772 35.6003 185.442 36.3599H185.336V32.6245H184.01V42.05Z" fill="#616161"/>
<path d="M194.672 36.2789C195.662 36.2789 196.309 36.97 196.34 38.0345H192.916C192.991 36.9762 193.682 36.2789 194.672 36.2789ZM196.334 40.2197C196.085 40.7489 195.531 41.0415 194.722 41.0415C193.651 41.0415 192.96 40.2882 192.916 39.0991V39.0244H197.704V38.5575C197.704 36.4283 196.564 35.1396 194.678 35.1396C192.767 35.1396 191.553 36.5155 191.553 38.682C191.553 40.8485 192.742 42.1808 194.684 42.1808C196.234 42.1808 197.318 41.4337 197.623 40.2197H196.334Z" fill="#616161"/>
<path d="M77.6535 50.4511C77.686 47.9296 79.0401 45.5437 81.1883 44.223C79.8331 42.2875 77.5632 41.0604 75.2016 40.9865C72.6827 40.7221 70.2408 42.4937 68.9572 42.4937C67.6488 42.4937 65.6726 41.0127 63.5445 41.0565C60.7706 41.1461 58.1847 42.7232 56.8351 45.1483C53.9341 50.171 56.098 57.5525 58.8769 61.6125C60.2673 63.6005 61.8922 65.8212 64.0184 65.7424C66.0989 65.6561 66.876 64.4157 69.3875 64.4157C71.8756 64.4157 72.6046 65.7424 74.774 65.6923C77.0065 65.6561 78.4131 63.6955 79.7547 61.6886C80.7537 60.2721 81.5224 58.7065 82.0323 57.0499C79.4087 55.9402 77.6566 53.2998 77.6535 50.4511Z" fill="#F17228"/>
<path d="M73.556 38.3165C74.7733 36.8552 75.373 34.9769 75.2278 33.0806C73.368 33.2759 71.6501 34.1647 70.4164 35.57C69.21 36.943 68.5821 38.7882 68.7008 40.6121C70.5613 40.6312 72.3902 39.7665 73.556 38.3165Z" fill="#F17228"/>
</g>
<defs>
<filter id="filter0_dd_401_1831" x="0.5" y="0" width="260" height="140" filterUnits="userSpaceOnUse" color-interpolation-filters="sRGB">
<feFlood flood-opacity="0" result="BackgroundImageFix"/>
<feColorMatrix in="SourceAlpha" type="matrix" values="0 0 0 0 0 0 0 0 0 0 0 0 0 0 0 0 0 0 127 0" result="hardAlpha"/>
<feOffset dy="20"/>
<feGaussianBlur stdDeviation="20"/>
<feColorMatrix type="matrix" values="0 0 0 0 1 0 0 0 0 0.680498 0 0 0 0 0 0 0 0 0.29 0"/>
<feBlend mode="normal" in2="BackgroundImageFix" result="effect1_dropShadow_401_1831"/>
<feColorMatrix in="SourceAlpha" type="matrix" values="0 0 0 0 0 0 0 0 0 0 0 0 0 0 0 0 0 0 127 0" result="hardAlpha"/>
<feOffset dy="5"/>
<feGaussianBlur stdDeviation="5"/>
<feColorMatrix type="matrix" values="0 0 0 0 1 0 0 0 0 0.680498 0 0 0 0 0 0 0 0 0.26 0"/>
<feBlend mode="normal" in2="effect1_dropShadow_401_1831" result="effect2_dropShadow_401_1831"/>
<feBlend mode="normal" in="SourceGraphic" in2="effect2_dropShadow_401_1831" result="shape"/>
</filter>
</defs>
</svg>
