<svg width="283" height="140" viewBox="0 0 283 140" fill="none" xmlns="http://www.w3.org/2000/svg">
<g filter="url(#filter0_dd_401_1830)">
<rect x="40" y="20" width="202.5" height="60" rx="5" fill="white"/>
<path d="M142.204 52.6268C138.676 52.6268 135.8 55.3103 135.8 59.0063C135.8 62.6798 138.676 65.3858 142.204 65.3858C145.733 65.3858 148.609 62.6798 148.609 59.0063C148.607 55.3103 145.732 52.6268 142.204 52.6268ZM142.204 62.8748C140.27 62.8748 138.604 61.2803 138.604 59.0078C138.604 56.7113 140.272 55.1408 142.204 55.1408C144.137 55.1408 145.804 56.7113 145.804 59.0078C145.804 61.2788 144.137 62.8748 142.204 62.8748ZM128.233 52.6268C124.705 52.6268 121.829 55.3103 121.829 59.0063C121.829 62.6798 124.705 65.3858 128.233 65.3858C131.762 65.3858 134.638 62.6798 134.638 59.0063C134.638 55.3103 131.762 52.6268 128.233 52.6268ZM128.233 62.8748C126.299 62.8748 124.633 61.2803 124.633 59.0078C124.633 56.7113 126.301 55.1408 128.233 55.1408C130.166 55.1408 131.833 56.7113 131.833 59.0078C131.834 61.2788 130.166 62.8748 128.233 62.8748ZM111.616 54.5858V57.2918H118.093C117.899 58.8143 117.392 59.9258 116.618 60.6983C115.676 61.6403 114.202 62.6798 111.616 62.6798C107.629 62.6798 104.512 59.4653 104.512 55.4783C104.512 51.4913 107.629 48.2768 111.616 48.2768C113.767 48.2768 115.337 49.1228 116.497 50.2103L118.406 48.3008C116.786 46.7543 114.637 45.5708 111.616 45.5708C106.154 45.5708 101.563 50.0168 101.563 55.4783C101.563 60.9398 106.154 65.3858 111.616 65.3858C114.563 65.3858 116.788 64.4183 118.526 62.6063C120.314 60.8183 120.871 58.3043 120.871 56.2748C120.871 55.6478 120.823 55.0673 120.725 54.5843H111.616V54.5858ZM179.578 56.6873C179.047 55.2623 177.427 52.6268 174.116 52.6268C170.83 52.6268 168.098 55.2128 168.098 59.0063C168.098 62.5823 170.806 65.3858 174.43 65.3858C177.353 65.3858 179.045 63.5978 179.747 62.5583L177.572 61.1078C176.848 62.1713 175.856 62.8718 174.43 62.8718C173.005 62.8718 171.989 62.2193 171.337 60.9383L179.867 57.4103L179.578 56.6873ZM170.878 58.8143C170.806 56.3483 172.787 55.0928 174.214 55.0928C175.325 55.0928 176.267 55.6493 176.582 56.4458L170.878 58.8143ZM163.943 65.0003H166.745V46.2488H163.943V65.0003ZM159.35 54.0533H159.254C158.626 53.3033 157.417 52.6268 155.896 52.6268C152.705 52.6268 149.782 55.4303 149.782 59.0318C149.782 62.6078 152.705 65.3873 155.896 65.3873C157.418 65.3873 158.626 64.7108 159.254 63.9383H159.35V64.8563C159.35 67.2968 158.045 68.6018 155.944 68.6018C154.228 68.6018 153.164 67.3703 152.729 66.3308L150.289 67.3463C150.989 69.0368 152.849 71.1158 155.944 71.1158C159.23 71.1158 162.01 69.1823 162.01 64.4693V53.0153H159.352V54.0533H159.35ZM156.137 62.8748C154.204 62.8748 152.585 61.2548 152.585 59.0318C152.585 56.7833 154.204 55.1408 156.137 55.1408C158.045 55.1408 159.544 56.7833 159.544 59.0318C159.544 61.2548 158.045 62.8748 156.137 62.8748ZM192.709 46.2488H186.002V65.0003H188.8V57.8963H192.707C195.809 57.8963 198.86 55.6508 198.86 52.0733C198.86 48.4958 195.811 46.2488 192.709 46.2488ZM192.781 55.2863H188.8V48.8588H192.781C194.873 48.8588 196.061 50.5913 196.061 52.0733C196.061 53.5253 194.873 55.2863 192.781 55.2863ZM210.079 52.5938C208.052 52.5938 205.954 53.4863 205.085 55.4648L207.569 56.5013C208.1 55.4648 209.09 55.1258 210.127 55.1258C211.574 55.1258 213.046 55.9943 213.07 57.5378V57.7313C212.563 57.4418 211.477 57.0083 210.151 57.0083C207.473 57.0083 204.746 58.4798 204.746 61.2293C204.746 63.7388 206.942 65.3543 209.402 65.3543C211.283 65.3543 212.321 64.5098 212.972 63.5198H213.068V64.9673H215.771V57.7778C215.773 54.4508 213.286 52.5938 210.079 52.5938ZM209.74 62.8703C208.825 62.8703 207.545 62.4113 207.545 61.2773C207.545 59.8298 209.138 59.2748 210.514 59.2748C211.742 59.2748 212.323 59.5403 213.07 59.9018C212.852 61.6403 211.357 62.8703 209.74 62.8703ZM225.614 53.0033L222.406 61.1333H222.31L218.98 53.0033H215.965L220.958 64.3658L218.111 70.6868H221.03L228.727 53.0033H225.614ZM200.405 65.0003H203.203V46.2488H200.405V65.0003Z" fill="#212121"/>
<path d="M111.127 35.3643C111.127 36.6213 110.755 37.6218 110.01 38.3688C109.164 39.2568 108.06 39.7008 106.704 39.7008C105.405 39.7008 104.299 39.2508 103.392 38.3508C102.483 37.4493 102.028 36.3333 102.028 35.0013C102.028 33.6678 102.483 32.5518 103.392 31.6518C104.299 30.7503 105.405 30.3003 106.704 30.3003C107.349 30.3003 107.965 30.4263 108.55 30.6768C109.137 30.9288 109.606 31.2633 109.957 31.6818L109.167 32.4738C108.571 31.7613 107.751 31.4058 106.702 31.4058C105.754 31.4058 104.935 31.7388 104.244 32.4048C103.552 33.0708 103.207 33.9363 103.207 34.9998C103.207 36.0633 103.552 36.9288 104.244 37.5948C104.935 38.2608 105.754 38.5938 106.702 38.5938C107.707 38.5938 108.546 38.2593 109.216 37.5888C109.651 37.1523 109.903 36.5448 109.971 35.7663H106.702V34.6848H111.063C111.108 34.9203 111.127 35.1468 111.127 35.3643Z" fill="#616161"/>
<path d="M118.042 31.6054H113.944V34.4584H117.64V35.5399H113.944V38.3929H118.042V39.4999H112.788V30.4999H118.042V31.6054Z" fill="#616161"/>
<path d="M122.919 39.4999H121.762V31.6054H119.248V30.4999H125.433V31.6054H122.919V39.4999Z" fill="#616161"/>
<path d="M129.907 39.4999V30.4999H131.063V39.4999H129.907Z" fill="#616161"/>
<path d="M136.192 39.4999H135.036V31.6054H132.522V30.4999H138.706V31.6054H136.192V39.4999Z" fill="#616161"/>
<path d="M150.413 38.3374C149.528 39.2464 148.429 39.7009 147.113 39.7009C145.798 39.7009 144.698 39.2464 143.815 38.3374C142.93 37.4284 142.489 36.3154 142.489 34.9999C142.489 33.6844 142.93 32.5714 143.815 31.6624C144.698 30.7534 145.798 30.2974 147.113 30.2974C148.421 30.2974 149.519 30.7549 150.407 31.6684C151.295 32.5819 151.739 33.6919 151.739 34.9999C151.739 36.3154 151.297 37.4284 150.413 38.3374ZM144.668 37.5829C145.334 38.2579 146.149 38.5939 147.113 38.5939C148.078 38.5939 148.894 38.2564 149.558 37.5829C150.224 36.9079 150.559 36.0469 150.559 34.9999C150.559 33.9529 150.224 33.0919 149.558 32.4169C148.894 31.7419 148.078 31.4059 147.113 31.4059C146.149 31.4059 145.334 31.7434 144.668 32.4169C144.004 33.0919 143.669 33.9529 143.669 34.9999C143.669 36.0469 144.004 36.9079 144.668 37.5829Z" fill="#616161"/>
<path d="M153.362 39.4999V30.4999H154.769L159.143 37.5004H159.193L159.143 35.7664V30.4999H160.3V39.4999H159.092L154.516 32.1589H154.466L154.516 33.8929V39.4999H153.362Z" fill="#616161"/>
<path d="M111.127 35.3643C111.127 36.6213 110.755 37.6218 110.01 38.3688C109.164 39.2568 108.06 39.7008 106.704 39.7008C105.405 39.7008 104.299 39.2508 103.392 38.3508C102.483 37.4493 102.028 36.3333 102.028 35.0013C102.028 33.6678 102.483 32.5518 103.392 31.6518C104.299 30.7503 105.405 30.3003 106.704 30.3003C107.349 30.3003 107.965 30.4263 108.55 30.6768C109.137 30.9288 109.606 31.2633 109.957 31.6818L109.167 32.4738C108.571 31.7613 107.751 31.4058 106.702 31.4058C105.754 31.4058 104.935 31.7388 104.244 32.4048C103.552 33.0708 103.207 33.9363 103.207 34.9998C103.207 36.0633 103.552 36.9288 104.244 37.5948C104.935 38.2608 105.754 38.5938 106.702 38.5938C107.707 38.5938 108.546 38.2593 109.216 37.5888C109.651 37.1523 109.903 36.5448 109.971 35.7663H106.702V34.6848H111.063C111.108 34.9203 111.127 35.1468 111.127 35.3643Z" stroke="#212121" stroke-width="0.2" stroke-miterlimit="10"/>
<path d="M118.042 31.6054H113.944V34.4584H117.64V35.5399H113.944V38.3929H118.042V39.4999H112.788V30.4999H118.042V31.6054Z" stroke="#212121" stroke-width="0.2" stroke-miterlimit="10"/>
<path d="M122.919 39.4999H121.762V31.6054H119.248V30.4999H125.433V31.6054H122.919V39.4999Z" stroke="#212121" stroke-width="0.2" stroke-miterlimit="10"/>
<path d="M129.907 39.4999V30.4999H131.063V39.4999H129.907Z" stroke="#212121" stroke-width="0.2" stroke-miterlimit="10"/>
<path d="M136.192 39.4999H135.036V31.6054H132.522V30.4999H138.706V31.6054H136.192V39.4999Z" stroke="#212121" stroke-width="0.2" stroke-miterlimit="10"/>
<path d="M150.413 38.3374C149.528 39.2464 148.429 39.7009 147.113 39.7009C145.798 39.7009 144.698 39.2464 143.815 38.3374C142.93 37.4284 142.489 36.3154 142.489 34.9999C142.489 33.6844 142.93 32.5714 143.815 31.6624C144.698 30.7534 145.798 30.2974 147.113 30.2974C148.421 30.2974 149.519 30.7549 150.407 31.6684C151.295 32.5819 151.739 33.6919 151.739 34.9999C151.739 36.3154 151.297 37.4284 150.413 38.3374ZM144.668 37.5829C145.334 38.2579 146.149 38.5939 147.113 38.5939C148.078 38.5939 148.894 38.2564 149.558 37.5829C150.224 36.9079 150.559 36.0469 150.559 34.9999C150.559 33.9529 150.224 33.0919 149.558 32.4169C148.894 31.7419 148.078 31.4059 147.113 31.4059C146.149 31.4059 145.334 31.7434 144.668 32.4169C144.004 33.0919 143.669 33.9529 143.669 34.9999C143.669 36.0469 144.004 36.9079 144.668 37.5829Z" stroke="#212121" stroke-width="0.2" stroke-miterlimit="10"/>
<path d="M153.362 39.4999V30.4999H154.769L159.143 37.5004H159.193L159.143 35.7664V30.4999H160.3V39.4999H159.092L154.516 32.1589H154.466L154.516 33.8929V39.4999H153.362Z" stroke="#212121" stroke-width="0.2" stroke-miterlimit="10"/>
<path fill-rule="evenodd" clip-rule="evenodd" d="M55.3531 31.7148C55.1015 32.1531 54.9595 32.7256 54.9595 33.4145V66.5885C54.9595 67.279 55.1017 67.8512 55.3536 68.2893L73.6393 50.001L55.3531 31.7148ZM56.044 69.0131C56.7367 69.435 57.7042 69.394 58.771 68.789L80.2321 56.5938L74.3464 50.7081L56.044 69.0131ZM81.1348 56.0823L88.0225 52.169C90.118 50.9765 90.118 49.028 88.0225 47.837L81.1319 43.9216L75.0534 50.0009L81.1348 56.0823ZM80.2301 43.4092L58.771 31.2155C57.7042 30.6093 56.7366 30.5692 56.0439 30.9914L74.3463 49.2938L80.2301 43.4092Z" fill="#F17228"/>
</g>
<defs>
<filter id="filter0_dd_401_1830" x="0" y="0" width="282.5" height="140" filterUnits="userSpaceOnUse" color-interpolation-filters="sRGB">
<feFlood flood-opacity="0" result="BackgroundImageFix"/>
<feColorMatrix in="SourceAlpha" type="matrix" values="0 0 0 0 0 0 0 0 0 0 0 0 0 0 0 0 0 0 127 0" result="hardAlpha"/>
<feOffset dy="20"/>
<feGaussianBlur stdDeviation="20"/>
<feColorMatrix type="matrix" values="0 0 0 0 1 0 0 0 0 0.680498 0 0 0 0 0 0 0 0 0.29 0"/>
<feBlend mode="normal" in2="BackgroundImageFix" result="effect1_dropShadow_401_1830"/>
<feColorMatrix in="SourceAlpha" type="matrix" values="0 0 0 0 0 0 0 0 0 0 0 0 0 0 0 0 0 0 127 0" result="hardAlpha"/>
<feOffset dy="5"/>
<feGaussianBlur stdDeviation="5"/>
<feColorMatrix type="matrix" values="0 0 0 0 1 0 0 0 0 0.680498 0 0 0 0 0 0 0 0 0.26 0"/>
<feBlend mode="normal" in2="effect1_dropShadow_401_1830" result="effect2_dropShadow_401_1830"/>
<feBlend mode="normal" in="SourceGraphic" in2="effect2_dropShadow_401_1830" result="shape"/>
</filter>
</defs>
</svg>
